<mxfile host="app.diagrams.net" modified="2021-04-06T12:18:44.666Z" agent="5.0 (X11; Linux x86_64) AppleWebKit/537.36 (KHTML, like Gecko) Chrome/89.0.4389.90 Safari/537.36" etag="Ory3xmytPJDl9hkFbMBp" version="14.4.4" type="github">
  <diagram id="QXR4r0A3u3qMhsyqZysL" name="Page-1">
    <mxGraphModel dx="1350" dy="774" grid="1" gridSize="10" guides="1" tooltips="1" connect="1" arrows="1" fold="1" page="1" pageScale="1" pageWidth="827" pageHeight="1169" math="0" shadow="0">
      <root>
        <mxCell id="0" />
        <mxCell id="1" parent="0" />
        <mxCell id="LxY_I3vZa2dR3kc1YIH--4" value="Customer" style="text;html=1;strokeColor=none;fillColor=none;align=center;verticalAlign=middle;whiteSpace=wrap;rounded=0;" vertex="1" parent="1">
          <mxGeometry x="45" y="370" width="40" height="20" as="geometry" />
        </mxCell>
        <mxCell id="LxY_I3vZa2dR3kc1YIH--11" value="Actor" style="shape=umlActor;verticalLabelPosition=bottom;verticalAlign=top;html=1;outlineConnect=0;" vertex="1" parent="1">
          <mxGeometry x="50" y="290" width="30" height="60" as="geometry" />
        </mxCell>
        <mxCell id="LxY_I3vZa2dR3kc1YIH--12" value="Balance payment&lt;br&gt;&amp;nbsp;gateway" style="ellipse;shape=cloud;whiteSpace=wrap;html=1;" vertex="1" parent="1">
          <mxGeometry x="270" y="280" width="160" height="80" as="geometry" />
        </mxCell>
        <mxCell id="LxY_I3vZa2dR3kc1YIH--14" value="" style="endArrow=none;html=1;exitX=0.5;exitY=0.5;exitDx=0;exitDy=0;exitPerimeter=0;entryX=0.16;entryY=0.55;entryDx=0;entryDy=0;entryPerimeter=0;" edge="1" parent="1" source="LxY_I3vZa2dR3kc1YIH--11" target="LxY_I3vZa2dR3kc1YIH--12">
          <mxGeometry width="50" height="50" relative="1" as="geometry">
            <mxPoint x="390" y="360" as="sourcePoint" />
            <mxPoint x="440" y="310" as="targetPoint" />
          </mxGeometry>
        </mxCell>
        <mxCell id="LxY_I3vZa2dR3kc1YIH--16" value="Seller A (balance account and stripe)" style="rounded=1;whiteSpace=wrap;html=1;" vertex="1" parent="1">
          <mxGeometry x="680" y="150" width="120" height="60" as="geometry" />
        </mxCell>
        <mxCell id="LxY_I3vZa2dR3kc1YIH--17" value="&lt;span style=&quot;color: rgb(0 , 0 , 0) ; font-family: &amp;#34;helvetica&amp;#34; ; font-size: 12px ; font-style: normal ; font-weight: 400 ; letter-spacing: normal ; text-align: center ; text-indent: 0px ; text-transform: none ; word-spacing: 0px ; background-color: rgb(248 , 249 , 250) ; display: inline ; float: none&quot;&gt;Seller B (balance account and stripe)&lt;/span&gt;" style="rounded=1;whiteSpace=wrap;html=1;" vertex="1" parent="1">
          <mxGeometry x="690" y="290" width="120" height="60" as="geometry" />
        </mxCell>
        <mxCell id="LxY_I3vZa2dR3kc1YIH--18" value="&lt;span style=&quot;color: rgb(0 , 0 , 0) ; font-family: &amp;#34;helvetica&amp;#34; ; font-size: 12px ; font-style: normal ; font-weight: 400 ; letter-spacing: normal ; text-align: center ; text-indent: 0px ; text-transform: none ; word-spacing: 0px ; background-color: rgb(248 , 249 , 250) ; display: inline ; float: none&quot;&gt;Seller C (balance account and stripe)&lt;/span&gt;" style="rounded=1;whiteSpace=wrap;html=1;" vertex="1" parent="1">
          <mxGeometry x="680" y="480" width="120" height="60" as="geometry" />
        </mxCell>
        <mxCell id="LxY_I3vZa2dR3kc1YIH--20" value="Seller-C $200" style="text;html=1;strokeColor=none;fillColor=none;align=center;verticalAlign=middle;whiteSpace=wrap;rounded=0;" vertex="1" parent="1">
          <mxGeometry x="120" y="280" width="100" height="20" as="geometry" />
        </mxCell>
        <mxCell id="LxY_I3vZa2dR3kc1YIH--21" value="Seller-B $200" style="text;html=1;strokeColor=none;fillColor=none;align=center;verticalAlign=middle;whiteSpace=wrap;rounded=0;" vertex="1" parent="1">
          <mxGeometry x="120" y="260" width="100" height="20" as="geometry" />
        </mxCell>
        <mxCell id="LxY_I3vZa2dR3kc1YIH--23" value="Seller-A $200" style="text;html=1;strokeColor=none;fillColor=none;align=center;verticalAlign=middle;whiteSpace=wrap;rounded=0;" vertex="1" parent="1">
          <mxGeometry x="120" y="240" width="100" height="20" as="geometry" />
        </mxCell>
        <mxCell id="LxY_I3vZa2dR3kc1YIH--24" value="" style="endArrow=classic;html=1;entryX=0;entryY=0.5;entryDx=0;entryDy=0;exitX=0.88;exitY=0.25;exitDx=0;exitDy=0;exitPerimeter=0;" edge="1" parent="1" source="LxY_I3vZa2dR3kc1YIH--12" target="LxY_I3vZa2dR3kc1YIH--16">
          <mxGeometry width="50" height="50" relative="1" as="geometry">
            <mxPoint x="450" y="300" as="sourcePoint" />
            <mxPoint x="440" y="300" as="targetPoint" />
          </mxGeometry>
        </mxCell>
        <mxCell id="LxY_I3vZa2dR3kc1YIH--25" value="" style="endArrow=classic;html=1;entryX=0;entryY=0.5;entryDx=0;entryDy=0;exitX=0.875;exitY=0.5;exitDx=0;exitDy=0;exitPerimeter=0;" edge="1" parent="1" source="LxY_I3vZa2dR3kc1YIH--12" target="LxY_I3vZa2dR3kc1YIH--17">
          <mxGeometry width="50" height="50" relative="1" as="geometry">
            <mxPoint x="430" y="420" as="sourcePoint" />
            <mxPoint x="480" y="370" as="targetPoint" />
          </mxGeometry>
        </mxCell>
        <mxCell id="LxY_I3vZa2dR3kc1YIH--26" value="" style="endArrow=classic;html=1;entryX=0;entryY=0.5;entryDx=0;entryDy=0;exitX=0.8;exitY=0.8;exitDx=0;exitDy=0;exitPerimeter=0;" edge="1" parent="1" source="LxY_I3vZa2dR3kc1YIH--12" target="LxY_I3vZa2dR3kc1YIH--18">
          <mxGeometry width="50" height="50" relative="1" as="geometry">
            <mxPoint x="390" y="350" as="sourcePoint" />
            <mxPoint x="440" y="300" as="targetPoint" />
          </mxGeometry>
        </mxCell>
        <mxCell id="LxY_I3vZa2dR3kc1YIH--27" value="$200 authorization" style="text;html=1;strokeColor=none;fillColor=none;align=center;verticalAlign=middle;whiteSpace=wrap;rounded=0;rotation=-25;" vertex="1" parent="1">
          <mxGeometry x="516.61" y="207.33" width="90.67" height="20" as="geometry" />
        </mxCell>
        <mxCell id="LxY_I3vZa2dR3kc1YIH--28" value="$200 authorization" style="text;html=1;strokeColor=none;fillColor=none;align=center;verticalAlign=middle;whiteSpace=wrap;rounded=0;rotation=0;" vertex="1" parent="1">
          <mxGeometry x="570" y="290" width="70" height="20" as="geometry" />
        </mxCell>
        <mxCell id="LxY_I3vZa2dR3kc1YIH--29" value="$200 authorization" style="text;html=1;strokeColor=none;fillColor=none;align=center;verticalAlign=middle;whiteSpace=wrap;rounded=0;rotation=30;" vertex="1" parent="1">
          <mxGeometry x="570" y="418.41" width="90.24" height="20" as="geometry" />
        </mxCell>
        <mxCell id="LxY_I3vZa2dR3kc1YIH--30" value="Bay Order $200" style="text;html=1;strokeColor=none;fillColor=none;align=center;verticalAlign=middle;whiteSpace=wrap;rounded=0;" vertex="1" parent="1">
          <mxGeometry x="120" y="220" width="100" height="20" as="geometry" />
        </mxCell>
        <mxCell id="LxY_I3vZa2dR3kc1YIH--31" value="Order Total : $800&amp;nbsp;" style="text;html=1;strokeColor=none;fillColor=none;align=center;verticalAlign=middle;whiteSpace=wrap;rounded=0;" vertex="1" parent="1">
          <mxGeometry x="120" y="365" width="100" height="30" as="geometry" />
        </mxCell>
        <mxCell id="LxY_I3vZa2dR3kc1YIH--32" value="Bay&amp;nbsp;" style="rounded=1;whiteSpace=wrap;html=1;" vertex="1" parent="1">
          <mxGeometry x="680" y="620" width="120" height="60" as="geometry" />
        </mxCell>
        <mxCell id="LxY_I3vZa2dR3kc1YIH--33" value="" style="endArrow=classic;html=1;exitX=0.55;exitY=0.95;exitDx=0;exitDy=0;exitPerimeter=0;entryX=-0.033;entryY=0.383;entryDx=0;entryDy=0;entryPerimeter=0;" edge="1" parent="1" source="LxY_I3vZa2dR3kc1YIH--12" target="LxY_I3vZa2dR3kc1YIH--32">
          <mxGeometry width="50" height="50" relative="1" as="geometry">
            <mxPoint x="390" y="530" as="sourcePoint" />
            <mxPoint x="440" y="480" as="targetPoint" />
          </mxGeometry>
        </mxCell>
        <mxCell id="LxY_I3vZa2dR3kc1YIH--34" value="$200 authorization" style="text;html=1;strokeColor=none;fillColor=none;align=center;verticalAlign=middle;whiteSpace=wrap;rounded=0;rotation=45;" vertex="1" parent="1">
          <mxGeometry x="500" y="460" width="40" height="20" as="geometry" />
        </mxCell>
        <mxCell id="LxY_I3vZa2dR3kc1YIH--36" value="Seller -A" style="rounded=0;whiteSpace=wrap;html=1;" vertex="1" parent="1">
          <mxGeometry x="40" y="720" width="120" height="60" as="geometry" />
        </mxCell>
        <mxCell id="LxY_I3vZa2dR3kc1YIH--37" value="Seller-B" style="rounded=0;whiteSpace=wrap;html=1;" vertex="1" parent="1">
          <mxGeometry x="40" y="840" width="120" height="60" as="geometry" />
        </mxCell>
        <mxCell id="LxY_I3vZa2dR3kc1YIH--38" value="Seller -C" style="rounded=0;whiteSpace=wrap;html=1;" vertex="1" parent="1">
          <mxGeometry x="40" y="960" width="120" height="60" as="geometry" />
        </mxCell>
        <mxCell id="LxY_I3vZa2dR3kc1YIH--39" value="Bay Order" style="rounded=0;whiteSpace=wrap;html=1;" vertex="1" parent="1">
          <mxGeometry x="40" y="1080" width="120" height="60" as="geometry" />
        </mxCell>
        <mxCell id="LxY_I3vZa2dR3kc1YIH--40" value="Balance payment&lt;br&gt;&amp;nbsp;gateway" style="ellipse;shape=cloud;whiteSpace=wrap;html=1;" vertex="1" parent="1">
          <mxGeometry x="300" y="810" width="160" height="80" as="geometry" />
        </mxCell>
        <mxCell id="LxY_I3vZa2dR3kc1YIH--41" value="Invoice create&amp;nbsp;" style="text;html=1;strokeColor=none;fillColor=none;align=center;verticalAlign=middle;whiteSpace=wrap;rounded=0;" vertex="1" parent="1">
          <mxGeometry x="40" y="660" width="135" height="20" as="geometry" />
        </mxCell>
        <mxCell id="LxY_I3vZa2dR3kc1YIH--42" value="" style="endArrow=classic;html=1;exitX=1;exitY=0.5;exitDx=0;exitDy=0;entryX=0.25;entryY=0.25;entryDx=0;entryDy=0;entryPerimeter=0;" edge="1" parent="1" source="LxY_I3vZa2dR3kc1YIH--36" target="LxY_I3vZa2dR3kc1YIH--40">
          <mxGeometry width="50" height="50" relative="1" as="geometry">
            <mxPoint x="390" y="860" as="sourcePoint" />
            <mxPoint x="440" y="810" as="targetPoint" />
          </mxGeometry>
        </mxCell>
        <mxCell id="LxY_I3vZa2dR3kc1YIH--43" value="" style="endArrow=classic;html=1;exitX=1;exitY=0.5;exitDx=0;exitDy=0;entryX=0.16;entryY=0.55;entryDx=0;entryDy=0;entryPerimeter=0;" edge="1" parent="1" source="LxY_I3vZa2dR3kc1YIH--37" target="LxY_I3vZa2dR3kc1YIH--40">
          <mxGeometry width="50" height="50" relative="1" as="geometry">
            <mxPoint x="390" y="860" as="sourcePoint" />
            <mxPoint x="310" y="854" as="targetPoint" />
          </mxGeometry>
        </mxCell>
        <mxCell id="LxY_I3vZa2dR3kc1YIH--44" value="" style="endArrow=classic;html=1;exitX=1;exitY=0.5;exitDx=0;exitDy=0;entryX=0.13;entryY=0.77;entryDx=0;entryDy=0;entryPerimeter=0;" edge="1" parent="1" source="LxY_I3vZa2dR3kc1YIH--38" target="LxY_I3vZa2dR3kc1YIH--40">
          <mxGeometry width="50" height="50" relative="1" as="geometry">
            <mxPoint x="170" y="880" as="sourcePoint" />
            <mxPoint x="335.5999999999999" y="864" as="targetPoint" />
          </mxGeometry>
        </mxCell>
        <mxCell id="LxY_I3vZa2dR3kc1YIH--45" value="" style="endArrow=classic;html=1;exitX=1;exitY=0;exitDx=0;exitDy=0;entryX=0.16;entryY=0.55;entryDx=0;entryDy=0;entryPerimeter=0;" edge="1" parent="1" source="LxY_I3vZa2dR3kc1YIH--39">
          <mxGeometry width="50" height="50" relative="1" as="geometry">
            <mxPoint x="180" y="890" as="sourcePoint" />
            <mxPoint x="345.5999999999999" y="874" as="targetPoint" />
          </mxGeometry>
        </mxCell>
        <mxCell id="LxY_I3vZa2dR3kc1YIH--46" value="In Magento order will divied into four differnece order base on seller." style="text;html=1;strokeColor=none;fillColor=none;align=left;verticalAlign=middle;whiteSpace=wrap;rounded=0;" vertex="1" parent="1">
          <mxGeometry x="40" y="440" width="290" height="40" as="geometry" />
        </mxCell>
        <mxCell id="LxY_I3vZa2dR3kc1YIH--47" value="Seller-A : order-00001" style="text;html=1;align=center;verticalAlign=middle;resizable=0;points=[];autosize=1;" vertex="1" parent="1">
          <mxGeometry x="40" y="500" width="130" height="20" as="geometry" />
        </mxCell>
        <mxCell id="LxY_I3vZa2dR3kc1YIH--48" value="Seller-B : order-00002" style="text;html=1;align=center;verticalAlign=middle;resizable=0;points=[];autosize=1;" vertex="1" parent="1">
          <mxGeometry x="40" y="520" width="130" height="20" as="geometry" />
        </mxCell>
        <mxCell id="LxY_I3vZa2dR3kc1YIH--49" value="Seller-C : order-00003" style="text;html=1;align=center;verticalAlign=middle;resizable=0;points=[];autosize=1;" vertex="1" parent="1">
          <mxGeometry x="40" y="540" width="130" height="20" as="geometry" />
        </mxCell>
        <mxCell id="LxY_I3vZa2dR3kc1YIH--50" value="Bay Order : order-00004" style="text;html=1;align=center;verticalAlign=middle;resizable=0;points=[];autosize=1;" vertex="1" parent="1">
          <mxGeometry x="30" y="560" width="150" height="20" as="geometry" />
        </mxCell>
        <mxCell id="LxY_I3vZa2dR3kc1YIH--51" value="Seller-A : order-00001" style="text;html=1;align=center;verticalAlign=middle;resizable=0;points=[];autosize=1;rotation=-30;" vertex="1" parent="1">
          <mxGeometry x="470" y="180" width="130" height="20" as="geometry" />
        </mxCell>
        <mxCell id="LxY_I3vZa2dR3kc1YIH--52" value="Seller-B : order-00002" style="text;html=1;align=center;verticalAlign=middle;resizable=0;points=[];autosize=1;" vertex="1" parent="1">
          <mxGeometry x="540" y="260" width="130" height="20" as="geometry" />
        </mxCell>
        <mxCell id="LxY_I3vZa2dR3kc1YIH--53" value="Seller-C : order-00003" style="text;html=1;align=center;verticalAlign=middle;resizable=0;points=[];autosize=1;rotation=30;" vertex="1" parent="1">
          <mxGeometry x="570" y="390" width="130" height="20" as="geometry" />
        </mxCell>
        <mxCell id="LxY_I3vZa2dR3kc1YIH--54" value="Bay Order : order-00004" style="text;html=1;align=center;verticalAlign=middle;resizable=0;points=[];autosize=1;rotation=45;" vertex="1" parent="1">
          <mxGeometry x="486.95" y="470" width="150" height="20" as="geometry" />
        </mxCell>
        <mxCell id="LxY_I3vZa2dR3kc1YIH--55" value="Seller-A : order-00001" style="text;html=1;align=center;verticalAlign=middle;resizable=0;points=[];autosize=1;" vertex="1" parent="1">
          <mxGeometry x="40" y="700" width="130" height="20" as="geometry" />
        </mxCell>
        <mxCell id="LxY_I3vZa2dR3kc1YIH--56" value="Seller-B : order-00002" style="text;html=1;align=center;verticalAlign=middle;resizable=0;points=[];autosize=1;" vertex="1" parent="1">
          <mxGeometry x="35" y="820" width="130" height="20" as="geometry" />
        </mxCell>
        <mxCell id="LxY_I3vZa2dR3kc1YIH--57" value="Seller-C : order-00003" style="text;html=1;align=center;verticalAlign=middle;resizable=0;points=[];autosize=1;" vertex="1" parent="1">
          <mxGeometry x="40" y="940" width="130" height="20" as="geometry" />
        </mxCell>
        <mxCell id="LxY_I3vZa2dR3kc1YIH--58" value="Bay Order : order-00004" style="text;html=1;align=center;verticalAlign=middle;resizable=0;points=[];autosize=1;" vertex="1" parent="1">
          <mxGeometry x="35" y="1060" width="150" height="20" as="geometry" />
        </mxCell>
        <mxCell id="LxY_I3vZa2dR3kc1YIH--59" value="Seller A (balance account and stripe)" style="rounded=1;whiteSpace=wrap;html=1;" vertex="1" parent="1">
          <mxGeometry x="660.24" y="720" width="120" height="60" as="geometry" />
        </mxCell>
        <mxCell id="LxY_I3vZa2dR3kc1YIH--60" value="Seller B (balance account and stripe)" style="rounded=1;whiteSpace=wrap;html=1;" vertex="1" parent="1">
          <mxGeometry x="660.24" y="820" width="120" height="60" as="geometry" />
        </mxCell>
        <mxCell id="LxY_I3vZa2dR3kc1YIH--61" value="Seller C (balance account and stripe)" style="rounded=1;whiteSpace=wrap;html=1;" vertex="1" parent="1">
          <mxGeometry x="660.24" y="960" width="120" height="60" as="geometry" />
        </mxCell>
        <mxCell id="LxY_I3vZa2dR3kc1YIH--62" value="Bay Order (balance account and stripe)" style="rounded=1;whiteSpace=wrap;html=1;" vertex="1" parent="1">
          <mxGeometry x="670" y="1080" width="120" height="60" as="geometry" />
        </mxCell>
        <mxCell id="LxY_I3vZa2dR3kc1YIH--63" value="" style="endArrow=classic;html=1;" edge="1" parent="1" source="LxY_I3vZa2dR3kc1YIH--40">
          <mxGeometry width="50" height="50" relative="1" as="geometry">
            <mxPoint x="414" y="830" as="sourcePoint" />
            <mxPoint x="660" y="750" as="targetPoint" />
          </mxGeometry>
        </mxCell>
        <mxCell id="LxY_I3vZa2dR3kc1YIH--64" value="capture $200&amp;nbsp;" style="text;html=1;strokeColor=none;fillColor=none;align=center;verticalAlign=middle;whiteSpace=wrap;rounded=0;" vertex="1" parent="1">
          <mxGeometry x="500" y="740" width="40" height="30" as="geometry" />
        </mxCell>
        <mxCell id="LxY_I3vZa2dR3kc1YIH--65" value="" style="endArrow=classic;html=1;exitX=0.963;exitY=0.588;exitDx=0;exitDy=0;exitPerimeter=0;" edge="1" parent="1" source="LxY_I3vZa2dR3kc1YIH--40">
          <mxGeometry width="50" height="50" relative="1" as="geometry">
            <mxPoint x="455.09867769653806" y="836.7504722512367" as="sourcePoint" />
            <mxPoint x="660" y="860" as="targetPoint" />
          </mxGeometry>
        </mxCell>
        <mxCell id="LxY_I3vZa2dR3kc1YIH--66" value="capture $200&amp;nbsp;" style="text;html=1;strokeColor=none;fillColor=none;align=center;verticalAlign=middle;whiteSpace=wrap;rounded=0;" vertex="1" parent="1">
          <mxGeometry x="540" y="820" width="40" height="30" as="geometry" />
        </mxCell>
        <mxCell id="LxY_I3vZa2dR3kc1YIH--67" value="" style="endArrow=classic;html=1;entryX=0;entryY=0.5;entryDx=0;entryDy=0;exitX=0.913;exitY=0.8;exitDx=0;exitDy=0;exitPerimeter=0;" edge="1" parent="1" source="LxY_I3vZa2dR3kc1YIH--40" target="LxY_I3vZa2dR3kc1YIH--61">
          <mxGeometry width="50" height="50" relative="1" as="geometry">
            <mxPoint x="439.99999999999994" y="910" as="sourcePoint" />
            <mxPoint x="645.92" y="912.96" as="targetPoint" />
          </mxGeometry>
        </mxCell>
        <mxCell id="LxY_I3vZa2dR3kc1YIH--68" value="capture $200&amp;nbsp;" style="text;html=1;strokeColor=none;fillColor=none;align=center;verticalAlign=middle;whiteSpace=wrap;rounded=0;" vertex="1" parent="1">
          <mxGeometry x="550" y="900" width="40" height="30" as="geometry" />
        </mxCell>
        <mxCell id="LxY_I3vZa2dR3kc1YIH--69" value="" style="endArrow=classic;html=1;entryX=0;entryY=0.25;entryDx=0;entryDy=0;exitX=0.656;exitY=0.938;exitDx=0;exitDy=0;exitPerimeter=0;" edge="1" parent="1" source="LxY_I3vZa2dR3kc1YIH--40" target="LxY_I3vZa2dR3kc1YIH--62">
          <mxGeometry width="50" height="50" relative="1" as="geometry">
            <mxPoint x="446.5685424949238" y="888.2842712474619" as="sourcePoint" />
            <mxPoint x="670.24" y="1000" as="targetPoint" />
          </mxGeometry>
        </mxCell>
        <mxCell id="LxY_I3vZa2dR3kc1YIH--70" value="" style="endArrow=classic;html=1;exitX=0.513;exitY=0.988;exitDx=0;exitDy=0;exitPerimeter=0;" edge="1" parent="1" source="LxY_I3vZa2dR3kc1YIH--40">
          <mxGeometry width="50" height="50" relative="1" as="geometry">
            <mxPoint x="456.5685424949238" y="898.2842712474619" as="sourcePoint" />
            <mxPoint x="660" y="1120" as="targetPoint" />
          </mxGeometry>
        </mxCell>
        <mxCell id="LxY_I3vZa2dR3kc1YIH--71" value="" style="endArrow=classic;html=1;exitX=1;exitY=0.75;exitDx=0;exitDy=0;entryX=0.444;entryY=0.963;entryDx=0;entryDy=0;entryPerimeter=0;" edge="1" parent="1" source="LxY_I3vZa2dR3kc1YIH--39" target="LxY_I3vZa2dR3kc1YIH--40">
          <mxGeometry width="50" height="50" relative="1" as="geometry">
            <mxPoint x="170" y="1120" as="sourcePoint" />
            <mxPoint x="356" y="900" as="targetPoint" />
          </mxGeometry>
        </mxCell>
        <mxCell id="LxY_I3vZa2dR3kc1YIH--73" value="capture $100&amp;nbsp;&lt;br&gt;invoice -1" style="text;html=1;strokeColor=none;fillColor=none;align=center;verticalAlign=middle;whiteSpace=wrap;rounded=0;rotation=30;" vertex="1" parent="1">
          <mxGeometry x="505" y="960" width="90" height="30" as="geometry" />
        </mxCell>
        <mxCell id="LxY_I3vZa2dR3kc1YIH--74" value="capture invoice-2&amp;nbsp;&lt;br&gt;&amp;nbsp;$100&amp;nbsp;" style="text;html=1;strokeColor=none;fillColor=none;align=center;verticalAlign=middle;whiteSpace=wrap;rounded=0;rotation=45;" vertex="1" parent="1">
          <mxGeometry x="465.73" y="1038.23" width="105" as="geometry" />
        </mxCell>
        <mxCell id="LxY_I3vZa2dR3kc1YIH--75" value="invoice - 1" style="text;html=1;strokeColor=none;fillColor=none;align=center;verticalAlign=middle;whiteSpace=wrap;rounded=0;rotation=-45;" vertex="1" parent="1">
          <mxGeometry x="200" y="970" width="70" height="20" as="geometry" />
        </mxCell>
        <mxCell id="LxY_I3vZa2dR3kc1YIH--76" value="invoice- 2" style="text;html=1;strokeColor=none;fillColor=none;align=center;verticalAlign=middle;whiteSpace=wrap;rounded=0;rotation=-45;" vertex="1" parent="1">
          <mxGeometry x="260" y="1007.5" width="55.67" height="12.5" as="geometry" />
        </mxCell>
        <mxCell id="LxY_I3vZa2dR3kc1YIH--77" value="invoice - 1" style="text;html=1;strokeColor=none;fillColor=none;align=center;verticalAlign=middle;whiteSpace=wrap;rounded=0;rotation=-45;" vertex="1" parent="1">
          <mxGeometry x="180" y="920" width="70" height="20" as="geometry" />
        </mxCell>
        <mxCell id="LxY_I3vZa2dR3kc1YIH--80" value="invoice - 1" style="text;html=1;strokeColor=none;fillColor=none;align=center;verticalAlign=middle;whiteSpace=wrap;rounded=0;rotation=0;" vertex="1" parent="1">
          <mxGeometry x="195" y="840" width="65" height="10" as="geometry" />
        </mxCell>
        <mxCell id="LxY_I3vZa2dR3kc1YIH--85" value="invoice - 1" style="text;html=1;strokeColor=none;fillColor=none;align=center;verticalAlign=middle;whiteSpace=wrap;rounded=0;rotation=30;" vertex="1" parent="1">
          <mxGeometry x="227.5" y="759.33" width="65" height="20" as="geometry" />
        </mxCell>
      </root>
    </mxGraphModel>
  </diagram>
</mxfile>
